<svg width="29" height="21" viewBox="0 0 29 21" fill="none" xmlns="http://www.w3.org/2000/svg">
<path d="M23.5874 12.6066C26.6434 15.4573 28.3154 17.9399 27.7101 19.1399C26.7168 21.0866 19.9994 18.7946 12.7034 14.0226C5.4101 9.25059 0.298096 3.80393 1.2901 1.85859C1.90876 0.64526 5.19143 1.26659 9.02743 2.93193" stroke="white" stroke-width="2" stroke-linecap="round" stroke-linejoin="round"/>
<path d="M5.16609 10.4998C5.16609 11.7255 5.40751 12.9392 5.87655 14.0715C6.34559 15.2039 7.03308 16.2328 7.89976 17.0995C8.76644 17.9662 9.79534 18.6537 10.9277 19.1227C12.0601 19.5918 13.2738 19.8332 14.4994 19.8332C15.7251 19.8332 16.9388 19.5918 18.0711 19.1227C19.2035 18.6537 20.2324 17.9662 21.0991 17.0995C21.9658 16.2328 22.6533 15.2039 23.1223 14.0715C23.5913 12.9392 23.8328 11.7255 23.8328 10.4998C23.8328 9.27417 23.5913 8.0605 23.1223 6.92812C22.6533 5.79575 21.9658 4.76685 21.0991 3.90017C20.2324 3.03349 19.2035 2.34601 18.0711 1.87696C16.9388 1.40792 15.7251 1.1665 14.4994 1.1665C13.2738 1.1665 12.0601 1.40792 10.9277 1.87696C9.79534 2.34601 8.76644 3.03349 7.89976 3.90017C7.03308 4.76685 6.34559 5.79575 5.87655 6.92812C5.40751 8.0605 5.16609 9.27417 5.16609 10.4998Z" stroke="white" stroke-width="2" stroke-linecap="round" stroke-linejoin="round"/>
</svg>
